# xmcd
#
# Track frame offsets: 
#        150
#        11807
#        27550
#        36717
#        51255
#        71405
#        83140
#        93692
#        107670
#        119979
#        135140
#        146472
#
# Disc length: 2120 seconds
#
# Revision: 0
# Processed by: cddbd v1.4PL0 Copyright (c) Steve Scherf et al.
# Submitted via: ExactAudioCopy v0.90b4
#
DISCID=af08460c
DTITLE=Don Wayne Reno - Heroes
DYEAR=1998
DGENRE=Bluegrass
TTITLE0=Nashville Skyline
TTITLE1=Hard Times
TTITLE2=Interstate
TTITLE3=Sledd Ridin'
TTITLE4=Just A Phone Call Will Do
TTITLE5=Shelton Special
TTITLE6=Tennessee Stomp
TTITLE7=Remington Ride
TTITLE8=5X8
TTITLE9=Banjo Bounce
TTITLE10=Clear Skies
TTITLE11=Choking The Strings
EXTD=
EXTT0=
EXTT1=
EXTT2=
EXTT3=
EXTT4=
EXTT5=
EXTT6=
EXTT7=
EXTT8=
EXTT9=
EXTT10=
EXTT11=
PLAYORDER=
